# xmcd
#
# Track frame offsets: 
#        183
#        12983
#        26003
#        41950
#        54153
#        73308
#        86810
#        98050
#        112495
#        127078
#        140580
#        155073
#        173598
#        185260
#        195925
#        208630
#
# Disc length: 2985 seconds
#
# Revision: 11
# Processed by: cddbd v1.5.2PL0 Copyright (c) Steve Scherf et al.
# Submitted via: ExactAudioCopyFreeDBPlugin 1.0
#
DISCID=ea0ba710
DTITLE=Don Williams - Very Best of Don Williams
DYEAR=1991
DGENRE=Country
TTITLE0=You're My Best Friend (1975)
TTITLE1=Lay Down Beside Me (1978)
TTITLE2=Till the Rivers All Run Dry (1976)
TTITLE3=Ghost Story (1974)
TTITLE4=Good Ole Boys Like Me (1979)
TTITLE5=Love Me Over Again (1979)
TTITLE6=It Must Be Love (1978)
TTITLE7=Amanda (1973)
TTITLE8=Tulsa Time (1978)
TTITLE9=The Shelter of your Eyes (1973)
TTITLE10=She's in Love with a Rodeo Man (1973)
TTITLE11=I Believe In You (1980)
TTITLE12=Time On My Hands (1977)
TTITLE13=Turn Down the Lights (and Love Me Tonight) (1975)
TTITLE14=Some Broken Hearts Never Mend (1977)
TTITLE15=I Recall a Gypsy Woman (1973)
EXTD=Track dates supplied.
EXTT0=
EXTT1=
EXTT2=
EXTT3=
EXTT4=
EXTT5=
EXTT6=
EXTT7=
EXTT8=
EXTT9=
EXTT10=
EXTT11=
EXTT12=
EXTT13=
EXTT14=
EXTT15=
PLAYORDER=
